<svg xmlns="http://www.w3.org/2000/svg" width="32" height="32" viewBox="0 0 24 24"><!-- Icon from Unicons by Iconscout - https://github.com/Iconscout/unicons/blob/master/LICENSE --><path fill="white" d="M22 2H2a1 1 0 0 0-1 1v8a1 1 0 0 0 1 1h3v9a1 1 0 0 0 1 1h12a1 1 0 0 0 1-1v-9h3a1 1 0 0 0 1-1V3a1 1 0 0 0-1-1M7 20v-2a2 2 0 0 1 2 2Zm10 0h-2a2 2 0 0 1 2-2Zm0-4a4 4 0 0 0-4 4h-2a4 4 0 0 0-4-4V8h10Zm4-6h-2V7a1 1 0 0 0-1-1H6a1 1 0 0 0-1 1v3H3V4h18Zm-9 5a3 3 0 1 0-3-3a3 3 0 0 0 3 3m0-4a1 1 0 1 1-1 1a1 1 0 0 1 1-1"/></svg>