<svg xmlns="http://www.w3.org/2000/svg" width="32" height="32" viewBox="0 0 24 24"><!-- Icon from Unicons by Iconscout - https://github.com/Iconscout/unicons/blob/master/LICENSE --><path fill="#198754" d="M12 12a3 3 0 1 0 3 3a3 3 0 0 0-3-3m0 4a1 1 0 1 1 1-1a1 1 0 0 1-1 1m-.71-6.29a1 1 0 0 0 .33.21a.94.94 0 0 0 .76 0a1 1 0 0 0 .33-.21L15 7.46A1 1 0 1 0 13.54 6l-.54.59V3a1 1 0 0 0-2 0v3.59L10.46 6A1 1 0 0 0 9 7.46ZM19 15a1 1 0 1 0-1 1a1 1 0 0 0 1-1m1-7h-3a1 1 0 0 0 0 2h3a1 1 0 0 1 1 1v8a1 1 0 0 1-1 1H4a1 1 0 0 1-1-1v-8a1 1 0 0 1 1-1h3a1 1 0 0 0 0-2H4a3 3 0 0 0-3 3v8a3 3 0 0 0 3 3h16a3 3 0 0 0 3-3v-8a3 3 0 0 0-3-3M5 15a1 1 0 1 0 1-1a1 1 0 0 0-1 1"/></svg>